<svg viewBox="0 0 169.03 53.46" xmlns="http://www.w3.org/2000/svg"><g fill="#54565a"><path d="m115.58.12v2.4a1.23 1.23 0 0 1 .23-.4 1.6 1.6 0 0 1 .35-.28 1.44 1.44 0 0 1 .42-.18 1.73 1.73 0 0 1 .45 0 1.92 1.92 0 0 1 .83.17 1.65 1.65 0 0 1 .59.49 2 2 0 0 1 .35.7 3.34 3.34 0 0 1 0 1.7 2.09 2.09 0 0 1 -.35.7 1.63 1.63 0 0 1 -.59.48 1.78 1.78 0 0 1 -.83.18 1.74 1.74 0 0 1 -.91-.24 1.36 1.36 0 0 1 -.58-.67v.79h-.47v-5.84zm2.76 3.05a1.81 1.81 0 0 0 -.24-.57 1.49 1.49 0 0 0 -.42-.41 1.28 1.28 0 0 0 -.63-.15 1.4 1.4 0 0 0 -.68.15 1.52 1.52 0 0 0 -.46.41 1.83 1.83 0 0 0 -.25.57 2.89 2.89 0 0 0 -.08.65 2.74 2.74 0 0 0 .08.64 1.79 1.79 0 0 0 .25.58 1.52 1.52 0 0 0 .46.41 1.4 1.4 0 0 0 .68.15 1.28 1.28 0 0 0 .63-.15 1.49 1.49 0 0 0 .42-.45 1.77 1.77 0 0 0 .24-.58 2.29 2.29 0 0 0 .08-.64 2.41 2.41 0 0 0 -.08-.61z"/><path d="m119.8 1.73 1.38 3.57 1.29-3.57h.53l-1.82 4.81a3.22 3.22 0 0 1 -.18.46 1 1 0 0 1 -.21.27.69.69 0 0 1 -.28.15 1.49 1.49 0 0 1 -.4 0h-.24a.33.33 0 0 1 -.15 0v-.42h.17.11a.59.59 0 0 0 .28 0 .5.5 0 0 0 .19-.13 1.1 1.1 0 0 0 .14-.21c0-.08.08-.17.12-.26l.18-.47-1.67-4.17z"/><path d="m129.83.12v.47h-3.44v2.09h3.22v.47h-3.22v2.29h3.48v.47h-4v-5.79z"/><path d="m130.85 5.05h.68v.86h-.68z"/><path d="m133.29 4.75a1.28 1.28 0 0 0 .41.48 1.82 1.82 0 0 0 .6.26 3.54 3.54 0 0 0 .75.07 2.25 2.25 0 0 0 .49-.06 1.48 1.48 0 0 0 .5-.21 1.19 1.19 0 0 0 .38-.36.89.89 0 0 0 .16-.54.79.79 0 0 0 -.11-.42 1 1 0 0 0 -.28-.3 1.44 1.44 0 0 0 -.39-.2 3.84 3.84 0 0 0 -.41-.13l-1.29-.34a2.81 2.81 0 0 1 -.49-.16 1.29 1.29 0 0 1 -.42-.26 1.14 1.14 0 0 1 -.29-.39 1.43 1.43 0 0 1 -.11-.58 1.91 1.91 0 0 1 .08-.49 1.48 1.48 0 0 1 .31-.54 1.79 1.79 0 0 1 .61-.43 2.57 2.57 0 0 1 1-.17 3.18 3.18 0 0 1 .82.11 2.17 2.17 0 0 1 .68.34 1.7 1.7 0 0 1 .46.57 1.61 1.61 0 0 1 .18.78h-.55a1.34 1.34 0 0 0 -.15-.58 1.39 1.39 0 0 0 -.35-.41 1.47 1.47 0 0 0 -.5-.25 1.87 1.87 0 0 0 -.59-.09 2.42 2.42 0 0 0 -.54.06 1.29 1.29 0 0 0 -.46.2 1 1 0 0 0 -.33.35 1.11 1.11 0 0 0 -.12.54.91.91 0 0 0 .07.35.83.83 0 0 0 .19.26 1 1 0 0 0 .28.17l.34.11 1.41.34c.21.06.4.13.58.2a2 2 0 0 1 .48.3 1.12 1.12 0 0 1 .32.42 1.41 1.41 0 0 1 .12.61v.26a1.18 1.18 0 0 1 -.13.38 1.29 1.29 0 0 1 -.22.37 1.2 1.2 0 0 1 -.39.34 2 2 0 0 1 -.61.24 3.83 3.83 0 0 1 -1.82 0 2.18 2.18 0 0 1 -.75-.36 1.66 1.66 0 0 1 -.47-.63 2 2 0 0 1 -.14-.91h.55a1.66 1.66 0 0 0 .14.7z"/><path d="m138.5.12v3.59a3 3 0 0 0 .11.85 1.44 1.44 0 0 0 .34.58 1.24 1.24 0 0 0 .53.32 2.64 2.64 0 0 0 1.44 0 1.24 1.24 0 0 0 .53-.32 1.44 1.44 0 0 0 .34-.58 3 3 0 0 0 .11-.85v-3.59h.55v3.71a2.65 2.65 0 0 1 -.13.85 1.86 1.86 0 0 1 -.39.7 2 2 0 0 1 -.7.47 3 3 0 0 1 -2.06 0 2 2 0 0 1 -.7-.47 1.86 1.86 0 0 1 -.39-.7 2.65 2.65 0 0 1 -.13-.85v-3.71z"/><path d="m144.17.12 3.37 4.88v-4.88h.55v5.79h-.62l-3.35-4.91v4.9h-.55v-5.78z"/><path d="m154 .12a3.29 3.29 0 0 1 .71.07 1.83 1.83 0 0 1 .59.24 1.3 1.3 0 0 1 .41.43 1.4 1.4 0 0 1 .15.68 1.31 1.31 0 0 1 -.07.44 1.22 1.22 0 0 1 -.21.39 1.26 1.26 0 0 1 -.31.3 1.23 1.23 0 0 1 -.41.17 1.4 1.4 0 0 1 .89.46 1.44 1.44 0 0 1 .33 1v.31a1.69 1.69 0 0 1 -.1.35 1.53 1.53 0 0 1 -.21.37 1.45 1.45 0 0 1 -.37.31 2.34 2.34 0 0 1 -.57.22 3.69 3.69 0 0 1 -.81.08h-2.45v-5.82zm0 2.54a1.93 1.93 0 0 0 .58-.08 1.22 1.22 0 0 0 .41-.21 1 1 0 0 0 .24-.31 1 1 0 0 0 .08-.38c0-.73-.44-1.09-1.31-1.09h-1.89v2.07zm0 2.78a3.7 3.7 0 0 0 .59-.05 1.46 1.46 0 0 0 .41-.19.93.93 0 0 0 .34-.37 1.25 1.25 0 0 0 .12-.58 1 1 0 0 0 -.39-.84 1.94 1.94 0 0 0 -1.07-.28h-1.89v2.31z"/><path d="m156.94 2.38a1.29 1.29 0 0 1 .35-.44 1.37 1.37 0 0 1 .53-.25 2.3 2.3 0 0 1 .66-.08 2.5 2.5 0 0 1 .55 0 1.23 1.23 0 0 1 .5.2 1 1 0 0 1 .36.41 1.47 1.47 0 0 1 .11.78v2.17c0 .21.1.31.3.31a.47.47 0 0 0 .17 0v.43h-.16-.18a.87.87 0 0 1 -.31 0 .45.45 0 0 1 -.18-.15.79.79 0 0 1 -.09-.23 2.66 2.66 0 0 1 0-.3 2.82 2.82 0 0 1 -.28.36 1.35 1.35 0 0 1 -.32.27 1.59 1.59 0 0 1 -.4.16 2 2 0 0 1 -.55-.02 2.35 2.35 0 0 1 -.54-.07 1.26 1.26 0 0 1 -.45-.22 1 1 0 0 1 -.3-.38 1.35 1.35 0 0 1 -.11-.55 1.11 1.11 0 0 1 .19-.69 1.24 1.24 0 0 1 .52-.37 2.91 2.91 0 0 1 .72-.19l.82-.1h.28a.4.4 0 0 0 .2-.08.37.37 0 0 0 .13-.17.7.7 0 0 0 0-.27 1 1 0 0 0 -.08-.43.67.67 0 0 0 -.24-.26.92.92 0 0 0 -.35-.14 2.77 2.77 0 0 0 -.42 0 1.27 1.27 0 0 0 -.8.23.91.91 0 0 0 -.32.74h-.51a1.67 1.67 0 0 1 .2-.67zm2.56 1.25a.33.33 0 0 1 -.19.12l-.24.06-.67.1a3.66 3.66 0 0 0 -.63.14 1.24 1.24 0 0 0 -.47.25.62.62 0 0 0 -.18.48.74.74 0 0 0 .08.34.86.86 0 0 0 .2.26 1.11 1.11 0 0 0 .3.17 1.41 1.41 0 0 0 .35 0 1.73 1.73 0 0 0 .56-.09 1.25 1.25 0 0 0 .47-.25 1.46 1.46 0 0 0 .32-.42 1.35 1.35 0 0 0 .11-.55v-.61z"/><path d="m161.55 1.73v.72a1.23 1.23 0 0 1 .52-.61 1.5 1.5 0 0 1 .82-.23 2 2 0 0 1 .74.11 1.23 1.23 0 0 1 .47.32 1.22 1.22 0 0 1 .25.51 2.73 2.73 0 0 1 .08.67v2.69h-.52v-2.61a2.67 2.67 0 0 0 0-.5 1.21 1.21 0 0 0 -.17-.4 1 1 0 0 0 -.33-.27 1.31 1.31 0 0 0 -.52-.09 1.23 1.23 0 0 0 -.55.11 1.17 1.17 0 0 0 -.4.3 1.24 1.24 0 0 0 -.26.45 1.75 1.75 0 0 0 -.1.57v2.44h-.58v-4.18z"/><path d="m165.91.12v3.63l2.32-2h.68l-1.78 1.55 1.87 2.61h-.64l-1.65-2.28-.83.69v1.59h-.51v-5.79z"/></g><rect fill="#00a4ef" height="6.76" rx="1.35" width="14.87" x="54.15" y="14.19"/><path d="m109.9 23.65a11.84 11.84 0 0 0 -11.83-11.82 11.68 11.68 0 0 0 -5.07 1.17 1.36 1.36 0 0 0 -1.34-1.15h-4.06a1.34 1.34 0 0 0 -1.35 1.35v22.62a1.35 1.35 0 0 0 1.35 1.35h4.05a1.36 1.36 0 0 0 1.35-1.35v-12.17a5.07 5.07 0 1 1 10.13 0v12.2a1.35 1.35 0 0 0 1.35 1.35h4.06a1.34 1.34 0 0 0 1.35-1.35v-12.2z" fill="#ffc517"/><path d="m156.36 11.83a12.67 12.67 0 1 0 12.64 12.67 12.69 12.69 0 0 0 -12.64-12.67zm0 18.58a5.92 5.92 0 1 1 5.92-5.91 5.92 5.92 0 0 1 -5.92 5.91z" fill="#ed4848"/><rect fill="#00c08b" height="25.34" rx="1.35" width="6.76" x="74.42" y="11.83"/><path d="m139 11.83h-4.05a1.35 1.35 0 0 0 -1.36 1.35v1.19a12.67 12.67 0 1 0 0 20.26v5.92a6.16 6.16 0 0 1 -12.21 1.1 1.33 1.33 0 0 0 -1.32-1.1h-4.1a1.34 1.34 0 0 0 -1.34 1.5 12.91 12.91 0 0 0 25.73-1.5v-27.37a1.34 1.34 0 0 0 -1.35-1.35zm-13 18.58a5.92 5.92 0 1 1 5.91-5.91 5.92 5.92 0 0 1 -5.91 5.91z" fill="#f90"/><path d="m64.28 0h-18.89a1.34 1.34 0 0 0 -1.39 1.35v34.47a1.35 1.35 0 0 0 1.35 1.35h4.06a1.36 1.36 0 0 0 1.35-1.35v-29.06h20.24a6.76 6.76 0 0 0 -6.72-6.76z" fill="#00a4ef"/><circle cx="37.23" cy="33.66" fill="#00c08b" r="3.38"/><path d="m79 .83a1.35 1.35 0 0 0 -2.34 0l-2.17 3.74a1.36 1.36 0 0 0 1.18 2h4.33a1.35 1.35 0 0 0 1.17-2z" fill="#00c08b"/><path d="m15.33 6.73a15.22 15.22 0 1 0 12.73 23.39 1.35 1.35 0 0 0 -1.13-2.12h-5.32a1.36 1.36 0 0 0 -.89.34 8.45 8.45 0 0 1 -13.52-3.69h21.8a1.36 1.36 0 0 0 1.35-1.23 16 16 0 0 0 .07-1.7 15.27 15.27 0 0 0 -15.09-14.99zm-8.13 12.51a8.46 8.46 0 0 1 16 0z" fill="#00c08b"/></svg>