<svg viewBox="0 0 57.57 57.57" xmlns="http://www.w3.org/2000/svg" xmlns:xlink="http://www.w3.org/1999/xlink"><linearGradient id="a" gradientUnits="userSpaceOnUse" x2="57.57" y1="28.79" y2="28.79"><stop offset="0" stop-color="#00c08b"/><stop offset=".27" stop-color="#00a4ef"/><stop offset=".53" stop-color="#ffc517"/><stop offset=".8" stop-color="#f90"/><stop offset="1" stop-color="#ed4848"/></linearGradient><clipPath id="b"><path d="m28.79 57.57a28.79 28.79 0 1 1 28.78-28.78 28.81 28.81 0 0 1 -28.78 28.78zm0-56.15a27.37 27.37 0 1 0 27.36 27.37 27.4 27.4 0 0 0 -27.36-27.37z"/></clipPath><circle cx="28.65" cy="28.4" fill="#fff" r="27.75"/><path d="m28.79 57.57a28.79 28.79 0 1 1 28.78-28.78 28.81 28.81 0 0 1 -28.78 28.78zm0-56.15a27.37 27.37 0 1 0 27.36 27.37 27.4 27.4 0 0 0 -27.36-27.37z" fill="url(#a)"/><g clip-path="url(#b)"><path d="m15.68 34 8.48-8.48a6.57 6.57 0 0 1 9.25 0l8.48 8.48" fill="none" stroke="#040000" stroke-miterlimit="10"/></g><path d="m31.64 22.79a3.29 3.29 0 0 0 -5.7 0l-5.26 9.11a3.29 3.29 0 0 0 2.85 4.93h10.52a3.28 3.28 0 0 0 2.84-4.93z" fill="#009e96"/></svg>