<svg viewBox="0 0 106.74 33.76" xmlns="http://www.w3.org/2000/svg"><g fill="#54565a"><path d="m73 .08v1.51a1 1 0 0 1 .15-.25 1 1 0 0 1 .22-.18.85.85 0 0 1 .26-.11 1.55 1.55 0 0 1 .29 0 1.12 1.12 0 0 1 .53.12 1.07 1.07 0 0 1 .37.3 1.35 1.35 0 0 1 .22.45 1.83 1.83 0 0 1 .07.53 1.9 1.9 0 0 1 -.11.55 1.3 1.3 0 0 1 -.22.44 1.07 1.07 0 0 1 -.37.3 1.12 1.12 0 0 1 -.53.11 1.07 1.07 0 0 1 -.57-.14.82.82 0 0 1 -.31-.48v.5h-.3v-3.65zm1.73 1.92a1.17 1.17 0 0 0 -.16-.36.88.88 0 0 0 -.26-.25.74.74 0 0 0 -.4-.1.83.83 0 0 0 -.43.1.88.88 0 0 0 -.29.25 1.46 1.46 0 0 0 -.19.36 2 2 0 0 0 0 .41 1.92 1.92 0 0 0 0 .41 1.46 1.46 0 0 0 .16.36.91.91 0 0 0 .29.26.83.83 0 0 0 .43.1.74.74 0 0 0 .4-.1.92.92 0 0 0 .26-.26 1.17 1.17 0 0 0 .16-.36 1.92 1.92 0 0 0 0-.41 2 2 0 0 0 .03-.41z"/><path d="m75.65 1.09.87 2.25.81-2.25h.32l-1.14 3a1.45 1.45 0 0 1 -.14.28.83.83 0 0 1 -.13.18.51.51 0 0 1 -.18.09.85.85 0 0 1 -.25 0h-.15-.09v-.23h.11.11a.4.4 0 0 0 .17 0 .25.25 0 0 0 .12-.08.38.38 0 0 0 .09-.13l.08-.2.11-.3-1.06-2.61z"/><path d="m82 .08v.29h-2.19v1.33h2v.3h-2v1.44h2.19v.29h-2.54v-3.65z"/><path d="m82.62 3.19h.43v.54h-.43z"/><path d="m84.17 3a.68.68 0 0 0 .25.3 1 1 0 0 0 .38.16 1.83 1.83 0 0 0 .47 0 1.27 1.27 0 0 0 .32 0 1.2 1.2 0 0 0 .31-.13.76.76 0 0 0 .24-.23.55.55 0 0 0 .1-.34.5.5 0 0 0 -.07-.27.64.64 0 0 0 -.17-.18.9.9 0 0 0 -.24-.12l-.26-.08-.81-.2-.31-.1a.83.83 0 0 1 -.27-.17.79.79 0 0 1 -.26-.64 1.32 1.32 0 0 1 .05-.28 1 1 0 0 1 .19-.34 1.13 1.13 0 0 1 .39-.27 1.58 1.58 0 0 1 .63-.11 1.81 1.81 0 0 1 .52.07 1.35 1.35 0 0 1 .43.22 1 1 0 0 1 .29.35 1 1 0 0 1 .11.5h-.35a.72.72 0 0 0 -.11-.37.92.92 0 0 0 -.2-.26 1.06 1.06 0 0 0 -.68-.21 1.34 1.34 0 0 0 -.35 0 .69.69 0 0 0 -.29.12.53.53 0 0 0 -.2.22.61.61 0 0 0 -.08.36.56.56 0 0 0 0 .23.61.61 0 0 0 .12.16.78.78 0 0 0 .18.11l.21.06.89.22.37.13a1.49 1.49 0 0 1 .3.18.9.9 0 0 1 .21.27.94.94 0 0 1 .07.39 1 1 0 0 1 -.07.38 2 2 0 0 1 -.14.23.75.75 0 0 1 -.25.21 1.21 1.21 0 0 1 -.38.16 2.33 2.33 0 0 1 -.56 0 2.35 2.35 0 0 1 -.6-.07 1.22 1.22 0 0 1 -.47-.23 1 1 0 0 1 -.3-.39 1.29 1.29 0 0 1 -.09-.58h.35a1.09 1.09 0 0 0 .13.54z"/><path d="m87.46.08v2.26a1.73 1.73 0 0 0 .07.54.9.9 0 0 0 .21.36.7.7 0 0 0 .34.21 1.72 1.72 0 0 0 .9 0 .75.75 0 0 0 .34-.21.9.9 0 0 0 .21-.36 1.73 1.73 0 0 0 .07-.54v-2.26h.4v2.34a1.89 1.89 0 0 1 -.08.53 1.24 1.24 0 0 1 -.25.45 1.25 1.25 0 0 1 -.44.29 1.61 1.61 0 0 1 -.65.11 1.58 1.58 0 0 1 -.65-.11 1.17 1.17 0 0 1 -.44-.29 1.11 1.11 0 0 1 -.3-.4 1.59 1.59 0 0 1 -.08-.53v-2.39z"/><path d="m91 .08 2.13 3.09v-3.09h.34v3.65h-.39l-2.08-3.09v3.09h-.34v-3.65z"/><path d="m97.23.08a2.12 2.12 0 0 1 .44 0 1 1 0 0 1 .33.19.7.7 0 0 1 .26.28.77.77 0 0 1 .1.42.87.87 0 0 1 -.05.28.85.85 0 0 1 -.13.25.7.7 0 0 1 -.2.18.56.56 0 0 1 -.26.11.86.86 0 0 1 .78.89 1.5 1.5 0 0 1 0 .2 1.12 1.12 0 0 1 -.06.23.85.85 0 0 1 -.13.22.8.8 0 0 1 -.24.2 1.27 1.27 0 0 1 -.35.14 2 2 0 0 1 -.51 0h-1.53v-3.59zm0 1.6a1.25 1.25 0 0 0 .36-.05.9.9 0 0 0 .26-.13.59.59 0 0 0 .15-.2.6.6 0 0 0 0-.24c0-.46-.27-.69-.82-.69h-1.18v1.31zm0 1.76a1.37 1.37 0 0 0 .36 0 .77.77 0 0 0 .31-.12.58.58 0 0 0 .21-.23.81.81 0 0 0 .08-.37.61.61 0 0 0 -.25-.53 1.26 1.26 0 0 0 -.71-.19h-1.23v1.44z"/><path d="m99.1 1.5a1 1 0 0 1 .22-.28 1 1 0 0 1 .33-.15 1.42 1.42 0 0 1 .42-.06 2 2 0 0 1 .35 0 .77.77 0 0 1 .31.12.65.65 0 0 1 .23.26.91.91 0 0 1 .09.43v1.45a.17.17 0 0 0 .19.19h.1v.27h-.1-.11a.56.56 0 0 1 -.2 0 .2.2 0 0 1 -.11-.09.39.39 0 0 1 -.06-.15 1.15 1.15 0 0 1 0-.19 2.31 2.31 0 0 1 -.18.23.82.82 0 0 1 -.45.27 1.55 1.55 0 0 1 -.33 0 1.29 1.29 0 0 1 -.35 0 .67.67 0 0 1 -.28-.14.65.65 0 0 1 -.17-.28.71.71 0 0 1 -.11-.38.72.72 0 0 1 .11-.4.79.79 0 0 1 .33-.23 1.57 1.57 0 0 1 .45-.12l.52-.06h.18l.13-.05a.31.31 0 0 0 .09-.14.72.72 0 0 0 0-.17.54.54 0 0 0 0-.27.5.5 0 0 0 -.15-.17.53.53 0 0 0 -.22-.08 1.14 1.14 0 0 0 -.27 0 .8.8 0 0 0 -.5.14.55.55 0 0 0 -.2.47h-.36a1.17 1.17 0 0 1 .1-.42zm1.61.79a.19.19 0 0 1 -.11.08h-.16l-.42.06a2.15 2.15 0 0 0 -.4.09.68.68 0 0 0 -.29.16.38.38 0 0 0 -.12.3.46.46 0 0 0 .05.21.55.55 0 0 0 .13.17.69.69 0 0 0 .19.1.57.57 0 0 0 .22 0 1.13 1.13 0 0 0 .36-.06.9.9 0 0 0 .29-.16.86.86 0 0 0 .2-.26.81.81 0 0 0 .07-.35v-.34z"/><path d="m102 1.09v.46a.78.78 0 0 1 .33-.39.92.92 0 0 1 .51-.15 1.28 1.28 0 0 1 .47.08.69.69 0 0 1 .3.2.74.74 0 0 1 .16.32 1.82 1.82 0 0 1 0 .42v1.7h-.32v-1.65a1.55 1.55 0 0 0 0-.31.64.64 0 0 0 -.11-.25.44.44 0 0 0 -.21-.17.73.73 0 0 0 -.32-.06 1 1 0 0 0 -.35.06.79.79 0 0 0 -.25.19.92.92 0 0 0 -.17.29 1 1 0 0 0 -.06.36v1.54h-.32v-2.64z"/><path d="m104.76.08v2.29l1.47-1.28h.43l-1.13 1 1.21 1.66h-.41l-1-1.44-.53.44v1h-.32v-3.67z"/></g><rect fill="#00a4ef" height="4.27" rx=".85" width="9.39" x="34.19" y="8.96"/><path d="m69.4 14.93a7.48 7.48 0 0 0 -10.68-6.74.85.85 0 0 0 -.85-.72h-2.56a.85.85 0 0 0 -.85.85v14.3a.85.85 0 0 0 .85.85h2.56a.85.85 0 0 0 .86-.85v-7.68a3.2 3.2 0 0 1 6.4 0v7.71a.85.85 0 0 0 .85.85h2.56a.86.86 0 0 0 .86-.85v-7.7z" fill="#ffc517"/><path d="m98.73 7.47a8 8 0 1 0 8 8 8 8 0 0 0 -8-8zm0 11.73a3.73 3.73 0 1 1 3.74-3.73 3.74 3.74 0 0 1 -3.74 3.73z" fill="#ed4848"/><rect fill="#00c08b" height="16" rx=".85" width="4.27" x="46.99" y="7.47"/><path d="m87.75 7.47h-2.56a.85.85 0 0 0 -.86.85v.75a8 8 0 1 0 0 12.8v3.73a3.89 3.89 0 0 1 -7.71.7.86.86 0 0 0 -.84-.7h-2.58a.86.86 0 0 0 -.85 1 8.15 8.15 0 0 0 16.25-1v-17.28a.85.85 0 0 0 -.85-.85zm-8.22 11.73a3.73 3.73 0 1 1 3.74-3.73 3.73 3.73 0 0 1 -3.74 3.73z" fill="#f90"/><path d="m40.59 0h-11.93a.85.85 0 0 0 -.85.85v21.77a.85.85 0 0 0 .85.85h2.54a.86.86 0 0 0 .86-.85v-18.35h12.8a4.27 4.27 0 0 0 -4.27-4.27z" fill="#00a4ef"/><circle cx="23.51" cy="21.26" fill="#00c08b" r="2.13"/><path d="m49.88.53a.85.85 0 0 0 -1.48 0l-1.4 2.36a.85.85 0 0 0 .74 1.28h2.73a.86.86 0 0 0 .74-1.28z" fill="#00c08b"/><path d="m9.68 4.25a9.61 9.61 0 1 0 8 14.77.86.86 0 0 0 -.68-1.32h-3.35a.91.91 0 0 0 -.57.21 5.33 5.33 0 0 1 -8.53-2.35h13.78a.86.86 0 0 0 .85-.77c0-.35 0-.71 0-1.08a9.63 9.63 0 0 0 -9.5-9.46zm-5.13 7.9a5.34 5.34 0 0 1 10.12 0z" fill="#00c08b"/></svg>