<svg viewBox="0 0 86.71 70.14" xmlns="http://www.w3.org/2000/svg" xmlns:xlink="http://www.w3.org/1999/xlink"><clipPath id="a" transform="translate(8.81)"><path d="m68.81 34.41a34.41 34.41 0 1 1 -34.4-34.41 34.4 34.4 0 0 1 34.4 34.41z"/></clipPath><g clip-path="url(#a)"><path d="m8.81 0h68.81v68.81h-68.81z" fill="#a1d6cc"/><g fill="#fff"><path d="m12.39 0 3.09 5.74 3.1 5.73h-6.19-6.2l3.1-5.73z" opacity=".2"/><path d="m24.77 0 3.1 5.74 3.1 5.73h-6.2-6.19l3.1-5.73z" opacity=".2"/><path d="m37.16 0 3.1 5.74 3.09 5.73h-6.19-6.19l3.09-5.73z" opacity=".2"/><path d="m49.55 0 3.09 5.74 3.1 5.73h-6.19-6.2l3.1-5.73z" opacity=".2"/><path d="m61.93 0 3.1 5.74 3.1 5.73h-6.2-6.19l3.1-5.73z" opacity=".2"/><path d="m74.32 0 3.1 5.74 3.09 5.73h-6.19-6.19l3.09-5.73z" opacity=".2"/><path d="m18.58 11.47 3.1 5.73 3.09 5.74h-6.19-6.19l3.09-5.74z" opacity=".2"/><path d="m6.19 11.47 3.1 5.73 3.1 5.74h-6.2-6.19l3.1-5.74z" opacity=".2"/><path d="m30.97 11.47 3.09 5.73 3.1 5.74h-6.19-6.2l3.1-5.74z" opacity=".2"/><path d="m43.35 11.47 3.1 5.73 3.1 5.74h-6.2-6.19l3.1-5.74z" opacity=".2"/><path d="m55.74 11.47 3.1 5.73 3.09 5.74h-6.19-6.19l3.09-5.74z" opacity=".2"/><path d="m68.13 11.47 3.09 5.73 3.1 5.74h-6.19-6.2l3.1-5.74z" opacity=".2"/><path d="m80.51 11.47 3.1 5.73 3.09 5.74h-6.19-6.19l3.1-5.74z" opacity=".2"/><path d="m12.39 22.94 3.09 5.73 3.1 5.74h-6.19-6.2l3.1-5.74z" opacity=".2"/><path d="m24.77 22.94 3.1 5.73 3.1 5.74h-6.2-6.19l3.1-5.74z" opacity=".2"/><path d="m37.16 22.94 3.1 5.73 3.09 5.74h-6.19-6.19l3.09-5.74z" opacity=".2"/><path d="m49.55 22.94 3.09 5.73 3.1 5.74h-6.19-6.2l3.1-5.74z" opacity=".2"/><path d="m61.93 22.94 3.1 5.73 3.1 5.74h-6.2-6.19l3.1-5.74z" opacity=".2"/><path d="m74.32 22.94 3.1 5.73 3.09 5.74h-6.19-6.19l3.09-5.74z" opacity=".2"/><path d="m18.58 34.41 3.1 5.73 3.09 5.74h-6.19-6.19l3.09-5.74z" opacity=".2"/><path d="m6.19 34.41 3.1 5.73 3.1 5.74h-6.2-6.19l3.1-5.74z" opacity=".2"/><path d="m30.97 34.41 3.09 5.73 3.1 5.74h-6.19-6.2l3.1-5.74z" opacity=".2"/><path d="m43.35 34.41 3.1 5.73 3.1 5.74h-6.2-6.19l3.1-5.74z" opacity=".2"/><path d="m55.74 34.41 3.1 5.73 3.09 5.74h-6.19-6.19l3.09-5.74z" opacity=".2"/><path d="m68.13 34.41 3.09 5.73 3.1 5.74h-6.19-6.2l3.1-5.74z" opacity=".2"/><path d="m80.51 34.41 3.1 5.73 3.09 5.74h-6.19-6.19l3.1-5.74z" opacity=".2"/><path d="m12.39 45.88 3.09 5.73 3.1 5.73h-6.19-6.2l3.1-5.73z" opacity=".2"/><path d="m24.77 45.88 3.1 5.73 3.1 5.73h-6.2-6.19l3.1-5.73z" opacity=".2"/><path d="m37.16 45.88 3.1 5.73 3.09 5.73h-6.19-6.19l3.09-5.73z" opacity=".2"/><path d="m49.55 45.88 3.09 5.73 3.1 5.73h-6.19-6.2l3.1-5.73z" opacity=".2"/><path d="m61.93 45.88 3.1 5.73 3.1 5.73h-6.2-6.19l3.1-5.73z" opacity=".2"/><path d="m74.32 45.88 3.1 5.73 3.09 5.73h-6.19-6.19l3.09-5.73z" opacity=".2"/><path d="m18.58 57.34 3.1 5.74 3.09 5.73h-6.19-6.19l3.09-5.73z" opacity=".2"/><path d="m6.19 57.34 3.1 5.74 3.1 5.73h-6.2-6.19l3.1-5.73z" opacity=".2"/><path d="m30.97 57.34 3.09 5.74 3.1 5.73h-6.19-6.2l3.1-5.73z" opacity=".2"/><path d="m43.35 57.34 3.1 5.74 3.1 5.73h-6.2-6.19l3.1-5.73z" opacity=".2"/><path d="m55.74 57.34 3.1 5.74 3.09 5.73h-6.19-6.19l3.09-5.73z" opacity=".2"/><path d="m68.13 57.34 3.09 5.74 3.1 5.73h-6.19-6.2l3.1-5.73z" opacity=".2"/><path d="m80.51 57.64 3.1 5.74 3.09 5.73h-6.19-6.19l3.1-5.73z" opacity=".2"/></g><path d="m46.72 24.61v-.07c-4 .61-7.21-1.9-8.4-3a11.91 11.91 0 0 0 -.43 2.94.51.51 0 0 1 -.31.46.54.54 0 0 1 -.21 0 .58.58 0 0 1 -.35-.13 8.12 8.12 0 0 1 -2.69-5.16.32.32 0 0 1 -.09 0c-5.24.35-10.17 3.35-12.53 4.96 0 .32 0 .64-.06 1-.39 6.56-1.11 18.75 12.56 20.74 14.19-2.07 13.1-14.86 12.51-21.74zm-2.75 6-1 .46s0 .09 0 .13a2 2 0 1 1 -2-2 2 2 0 0 1 1.75 1l.77-.36a.44.44 0 0 1 .61.16.43.43 0 0 1 -.1.61zm-5.66-4.61a9.42 9.42 0 0 1 6.13.4c.52.21.29 1.07-.24.85a8.7 8.7 0 0 0 -5.65-.4.44.44 0 0 1 -.24-.85zm-4.64 7.7a.52.52 0 0 1 .52-.52.52.52 0 0 1 .53.52v1.92a.52.52 0 0 1 -.53.52.52.52 0 0 1 -.52-.52zm-9.6-7.7a9.48 9.48 0 0 1 6.13-.4.45.45 0 0 1 -.24.86 8.64 8.64 0 0 0 -5.65.4c-.53.22-.76-.65-.24-.86zm3.4 7.2a2 2 0 0 1 -2-2v-.13l-1-.46a.44.44 0 1 1 .45-.76l.78.36a2 2 0 1 1 1.74 3zm3.06 5.69a8.89 8.89 0 0 0 7.46.35c.53-.21.76.65.24.86a9.78 9.78 0 0 1 -8.14-.44c-.52-.27-.09-1.03.44-.77z" fill="#ffe4cc" transform="translate(8.81)"/><path d="m39.8 37.7a2.32 2.32 0 1 0 2.31-2.32 2.31 2.31 0 0 0 -2.31 2.32z" fill="#fccdc5" transform="translate(8.81)"/><path d="m26.36 35.38a2.32 2.32 0 1 0 2.32 2.32 2.32 2.32 0 0 0 -2.32-2.32z" fill="#fccdc5" transform="translate(8.81)"/><path d="m31.36 39.87s2.17 4.47 5.27.38a9.25 9.25 0 0 1 -5.27-.38z" fill="#eaa494" transform="translate(8.81)"/><path d="m31.36 39.43s3.06-1.55 5.29.34c0 0-2.15 1.45-5.29-.34z" fill="#eaa494" transform="translate(8.81)"/><path d="m34.24 18.69a12.63 12.63 0 0 1 .67-4.45.53.53 0 0 1 1 .38c0 .05-1.91 5.07 1 8.63a5.36 5.36 0 0 1 .94-3 .53.53 0 0 1 .74.05c.19.21 4.58 5.09 10.08 2.52a.53.53 0 0 1 .7.25.53.53 0 0 1 -.26.7 8.75 8.75 0 0 1 -1.37.5v.21c.12 1.43.27 3.18.29 5.07a3.7 3.7 0 0 1 1.81-.47.06.06 0 0 0 0 0 15.93 15.93 0 0 0 -1.2-14.7 14.27 14.27 0 0 0 -5.31-4.74c-6.73-3.45-19.45-1.35-23.72 5.6-2.49 4-2.41 9.81-1.22 13.89a3.58 3.58 0 0 1 2 .52c0-1.53.08-2.93.15-4.11a.66.66 0 0 0 0-.14c-.22.16-.35.27-.36.28a.51.51 0 0 1 -.33.11.52.52 0 0 1 -.33-.93c.28-.23 7-5.72 14.57-6.18z" fill="#4c1e18" transform="translate(8.81)"/><path d="m18.16 32.92a.53.53 0 0 1 -.7-.25.52.52 0 0 1 .25-.7 3.79 3.79 0 0 1 2.82.14c0-.37 0-.73-.05-1.09a.58.58 0 0 1 -.12-.1 2.45 2.45 0 0 0 -2.07-.74 1.9 1.9 0 0 0 -1.53.87 2.22 2.22 0 0 0 .32 2.85 3 3 0 0 0 3.67.23c0-.28-.08-.56-.11-.84a3.54 3.54 0 0 0 -2.48-.37z" fill="#ffe4cc" transform="translate(8.81)"/><path d="m48 30.92c0 .39 0 .79-.05 1.19a3.86 3.86 0 0 1 2.9-.11.53.53 0 1 1 -.45 1 3.56 3.56 0 0 0 -2.52.39c0 .29-.07.59-.12.88a3 3 0 0 0 3.56-.29 2.22 2.22 0 0 0 .32-2.85 1.92 1.92 0 0 0 -1.53-.87 2.44 2.44 0 0 0 -2.11.66z" fill="#ffe4cc" transform="translate(8.81)"/><path d="m34.3 47.39h-.18a20.25 20.25 0 0 1 -4.16-1 4.87 4.87 0 0 1 -.26 1.61c.67.53 4.45 3.17 9.34-.23a5.23 5.23 0 0 1 -.19-1.56 20.39 20.39 0 0 1 -4.55 1.18z" fill="#ffe4cc" transform="translate(8.81)"/><path d="m32.27 7.17a23.3 23.3 0 0 1 5.83-.08c-1-2.6-5.31-2.17-5.83.08z" fill="#00a38d" transform="translate(8.81)"/><path d="m38.1 7.09a20.22 20.22 0 0 1 2.55.45c-.8-2.13-1.85-3.42-3-3.75a3.38 3.38 0 0 0 -2.82.76.52.52 0 0 1 -.58.07 2.64 2.64 0 0 0 -2.12 0 4.1 4.1 0 0 0 -1.77 2.9c.65-.14 1.3-.24 2-.33.43-2.27 4.74-2.7 5.74-.1z" fill="#4c1e18" transform="translate(8.81)"/><path d="m40.9 45.24c.18.6.91.95 2 1.39a3.9 3.9 0 0 1 2 1.38 6.66 6.66 0 0 0 2.46-5.66.55.55 0 0 1 .32-.48.52.52 0 0 1 .56.1 10 10 0 0 1 1.3 1.48c.78-3-1.39-6.66-2.07-7.68a13.74 13.74 0 0 1 -6.57 9.47z" fill="#4c1e18" transform="translate(8.81)"/><path d="m34.38 66.39a19.9 19.9 0 0 0 7.84-14.39c-1.31 1.07-3.51 2.68-5 2.68a.49.49 0 0 1 -.42-.21l-2.5-3.47-2.54 3.4a.49.49 0 0 1 -.42.21c-1.39 0-3.45-1.46-4.77-2.53a19.89 19.89 0 0 0 7.81 14.31z" fill="#feffee" transform="translate(8.81)"/><path d="m33.4 50.48a8.67 8.67 0 0 1 -4.18-1.48 5.21 5.21 0 0 1 -2.52 1.92c1.2 1 3.19 2.52 4.4 2.71z" fill="#feffee" transform="translate(8.81)"/><path d="m43.3 51.27a21 21 0 0 1 -8.59 16.18.54.54 0 0 1 -.3.1.54.54 0 0 1 -.3-.1 21 21 0 0 1 -8.59-16.16c-6.76 2.12-8.52 3.62-9.79 17.81h5.67c0-2 .38-6.23.46-7l-.86-2.71a.53.53 0 0 1 1-.31l.87 2.83a.5.5 0 0 1 0 .21c0 .06-.51 4.92-.46 7h11.89.11.11 11.31c.05-2.06-.46-6.92-.46-7a.38.38 0 0 1 0-.21l.87-2.83a.53.53 0 0 1 .66-.35.53.53 0 0 1 .34.66l-.84 2.73c.08.75.5 5 .45 7h6.22c-1.26-14.24-3.07-15.71-9.77-17.85z" fill="#00a38d" transform="translate(8.81)"/><path d="m35.16 50.45 2.33 3.13c1.15-.19 3.12-1.61 4.47-2.77a5 5 0 0 1 -2.49-2.05 10 10 0 0 1 -4.31 1.69z" fill="#feffee" transform="translate(8.81)"/><path d="m30 26.46a.45.45 0 0 0 .24-.86 9.48 9.48 0 0 0 -6.13.4c-.52.21-.29 1.08.24.86a8.64 8.64 0 0 1 5.65-.4z" fill="#340910" transform="translate(8.81)"/><path d="m38.55 26.82a8.7 8.7 0 0 1 5.65.4c.53.22.76-.64.24-.85a9.42 9.42 0 0 0 -6.13-.4.44.44 0 0 0 .24.85z" fill="#340910" transform="translate(8.81)"/><path d="m27.47 29.2a2 2 0 0 0 -1.74 1l-.73-.35a.44.44 0 1 0 -.45.76l1 .46v.13a2 2 0 1 0 2-2z" fill="#340910" transform="translate(8.81)"/><path d="m43.52 29.85-.77.36a2 2 0 0 0 -1.75-1 2 2 0 1 0 2 2s0-.09 0-.13l1-.46a.43.43 0 0 0 .16-.6.44.44 0 0 0 -.64-.17z" fill="#340910" transform="translate(8.81)"/><path d="m34.19 36.14a.52.52 0 0 0 .53-.52v-1.92a.52.52 0 0 0 -.53-.52.52.52 0 0 0 -.52.52v1.92a.52.52 0 0 0 .52.52z" fill="#340910" transform="translate(8.81)"/><path d="m38.23 40.1c.52-.21.29-1.07-.24-.86a8.89 8.89 0 0 1 -7.46-.35c-.5-.26-1 .5-.44.77a9.78 9.78 0 0 0 8.14.44z" fill="#340910" transform="translate(8.81)"/><path d="m25.52 50.64-2.18 6.36 2.42 3.39-1 2s7 5.26 9.56 5.14c-.02-.01-7.17-5.32-8.8-16.89z" fill="#00755f" transform="translate(8.81)"/><path d="m43.22 50.64 2.18 6.36-2.4 3.43 1 2s-7 5.26-9.57 5.14c.01-.05 7.16-5.36 8.79-16.93z" fill="#00755f" transform="translate(8.81)"/><path d="m43 50.07c-3.76-1.16-3.06-4.19-3-4.32a4.19 4.19 0 0 0 2.49 1.86c1.37.57 1.64.81 1.48 1.26a.53.53 0 0 0 .17.6.51.51 0 0 0 .62 0 7.64 7.64 0 0 0 3.62-5.85 7.26 7.26 0 0 1 .83 1.26.54.54 0 0 0 .47.29.52.52 0 0 0 .47-.29c1.72-3.4-.46-7.59-1.5-9.26a4.15 4.15 0 0 0 .79.08 3.81 3.81 0 0 0 2.64-1 3.26 3.26 0 0 0 .5-4.13 2.76 2.76 0 0 0 -1.64-1.25 17 17 0 0 0 -1.34-15.45 15.47 15.47 0 0 0 -5.76-5.17 13.69 13.69 0 0 0 -2-.79c-1-2.93-2.31-4.66-4-5.13a4.29 4.29 0 0 0 -3.52.77 3.54 3.54 0 0 0 -2.72.11c-1.22.61-2 2-2.44 4.11-4.68 1.23-8.45 3.73-10.42 6.92-2.63 4.31-2.58 10.31-1.35 14.62a2.75 2.75 0 0 0 -1.54 1.22 3.26 3.26 0 0 0 .5 4.13 3.8 3.8 0 0 0 2.64 1 4.44 4.44 0 0 0 2-.47c.82 4.24 2.93 8.42 8 10.7.11.67.27 3.12-3.06 4.15-8.27 2.57-9.93 4.4-11.3 19.53a.56.56 0 0 0 .14.41.55.55 0 0 0 .38.16h19.15.11.11 19.14a.55.55 0 0 0 .39-.16.51.51 0 0 0 .13-.41c-1.32-15.15-3.03-16.96-11.18-19.5zm-1 .74c-1.35 1.16-3.32 2.58-4.47 2.77l-2.33-3.13a10 10 0 0 0 4.31-1.69 5 5 0 0 0 2.49 2.05zm-2.92-3c-4.89 3.4-8.67.76-9.34.23a4.87 4.87 0 0 0 .26-1.68 20.25 20.25 0 0 0 4.16 1h.18a20.39 20.39 0 0 0 4.55-1.17 5.23 5.23 0 0 0 .11 1.59zm10.5-4.33a10 10 0 0 0 -1.34-1.48.52.52 0 0 0 -.56-.1.55.55 0 0 0 -.32.48 6.66 6.66 0 0 1 -2.46 5.62 3.9 3.9 0 0 0 -2-1.38c-1.06-.44-1.79-.79-2-1.39a13.74 13.74 0 0 0 6.57-9.47c.68 1.03 2.85 4.65 2.07 7.69zm2.1-12.4a2.22 2.22 0 0 1 -.32 2.85 3 3 0 0 1 -3.56.29c.05-.29.08-.59.12-.88a3.56 3.56 0 0 1 2.52-.39.53.53 0 1 0 .45-1 3.86 3.86 0 0 0 -2.87.15c0-.4 0-.8.05-1.19a2.44 2.44 0 0 1 2.07-.74 1.92 1.92 0 0 1 1.5.88zm-19.59-26.48a2.64 2.64 0 0 1 2.12 0 .52.52 0 0 0 .58-.07 3.38 3.38 0 0 1 2.82-.76c1.19.33 2.24 1.62 3 3.75a20.22 20.22 0 0 0 -2.55-.45.05.05 0 0 1 0 0 .05.05 0 0 0 0 0 23.3 23.3 0 0 0 -5.83.08.24.24 0 0 0 0 .08.24.24 0 0 1 0-.08c-.65.09-1.3.19-2 .33a4.1 4.1 0 0 1 1.86-2.88zm-15 29.3a2.22 2.22 0 0 1 -.32-2.85 1.9 1.9 0 0 1 1.53-.87 2.45 2.45 0 0 1 2.07.74.58.58 0 0 0 .12.1c0 .36 0 .72.05 1.09a3.79 3.79 0 0 0 -2.83-.11.52.52 0 0 0 -.25.7.53.53 0 0 0 .7.25 3.54 3.54 0 0 1 2.48.37c0 .28.07.56.11.84a3 3 0 0 1 -3.67-.26zm2.51-9a.52.52 0 0 0 .33.93.51.51 0 0 0 .33-.11s.14-.12.36-.28a.66.66 0 0 1 0 .14c-.07 1.18-.15 2.58-.15 4.11a3.58 3.58 0 0 0 -2-.52c-1.19-4.08-1.27-9.85 1.22-13.89 4.27-7 17-9 23.72-5.6a14.27 14.27 0 0 1 5.31 4.74 15.93 15.93 0 0 1 1.2 14.7.06.06 0 0 1 0 0 3.7 3.7 0 0 0 -1.81.47c0-1.89-.17-3.64-.29-5.07v-.21a8.75 8.75 0 0 0 1.37-.5.53.53 0 0 0 .26-.7.53.53 0 0 0 -.7-.25c-5.5 2.57-9.89-2.31-10.08-2.52a.53.53 0 0 0 -.74-.05 5.36 5.36 0 0 0 -.94 3c-2.93-3.56-1-8.58-1-8.63a.53.53 0 0 0 -1-.38 12.63 12.63 0 0 0 -.67 4.45h-.08c-7.61.41-14.37 5.9-14.65 6.13zm2.06.74c0-.35 0-.67.06-1 2.35-1.64 7.28-4.64 12.51-4.91a.32.32 0 0 0 .09 0 8.12 8.12 0 0 0 2.68 5.13.58.58 0 0 0 .35.13.54.54 0 0 0 .21 0 .51.51 0 0 0 .31-.46 11.91 11.91 0 0 1 .43-2.94c1.19 1.1 4.4 3.61 8.4 3v.07c.59 6.88 1.68 19.67-12.51 21.73-13.65-2.04-12.93-14.23-12.54-20.79zm7.56 23.36a8.67 8.67 0 0 0 4.18 1.53l-2.3 3.1c-1.21-.19-3.2-1.7-4.4-2.71a5.21 5.21 0 0 0 2.52-1.92zm2.12 5.7a.49.49 0 0 0 .42-.21l2.54-3.49 2.53 3.4a.49.49 0 0 0 .42.21c1.46 0 3.66-1.61 5-2.68a19.9 19.9 0 0 1 -7.84 14.42 19.89 19.89 0 0 1 -7.81-14.27c1.29 1.11 3.4 2.57 4.74 2.57zm15.53 14.4c.05-2-.37-6.23-.45-7l.84-2.73a.53.53 0 0 0 -.34-.66.53.53 0 0 0 -.66.35l-.87 2.83a.38.38 0 0 0 0 .21c0 .06.51 4.92.46 7h-11.33-.11-.11-11.85c-.05-2.06.46-6.92.46-7a.5.5 0 0 0 0-.21l-.91-2.81a.53.53 0 0 0 -1 .31l.85 2.73c-.08.75-.5 5-.46 7h-5.66c1.28-14.19 3-15.69 9.74-17.81a21 21 0 0 0 8.59 16.16.54.54 0 0 0 .3.1.54.54 0 0 0 .3-.1 21 21 0 0 0 8.64-16.2c6.74 2.14 8.51 3.61 9.79 17.83z" fill="#340910" transform="translate(8.81)"/><path d="m42.18 61.22-1.07-5.7a3 3 0 0 0 -1.6-1.84l1.37 6.24-.13-.06-1.37-6.24-.31-.15 1.37 6.25-.58-.27-.13-.06h-.12l-1.37-6.29-.12-.05 1.37 6.23-.21-.09-.42-.19-1.37-6.23-.41-.19 1.36 6.23-.54-.25-.16-.07-.27-.13-.18-.08-.53-.28-.7-.32-1.34-6.05c-.39 0-.61.27-.52.74l1.07 5.7a3 3 0 0 0 1.61 1.85l4.12 1.89c.79.35 1.31.08 1.18-.59z" fill="#ffb89a" transform="translate(8.81)"/><path d="m48.66 59.45.59.27-1.38-6.24-.58-.27z" fill="#fff"/><path d="m46.71 58.55.54.25-1.37-6.23-.54-.24z" fill="#fff"/><path d="m36.76 58-1.37-6.21a1.34 1.34 0 0 0 -.63-.14l1.34 6.05z" fill="#fff" transform="translate(8.81)"/><path d="m40.88 59.92-1.37-6.24-.12-.05 1.37 6.24z" fill="#fff" transform="translate(8.81)"/><path d="m48.06 59.17-1.37-6.23-.39-.18 1.37 6.23z" fill="#fff"/><path d="m44.69 52.03 1.36 6.22.18.08-1.37-6.22z" fill="#fff"/><path d="m48.09 59.19.21.09-1.37-6.23-.21-.1z" fill="#00dfb4"/><path d="m46.69 52.94 1.37 6.23.03.02-1.37-6.24z" fill="#00dfb4"/><path d="m48.54 59.39-1.37-6.23-.12-.06 1.37 6.24z" fill="#00dfb4"/><path d="m47.17 53.16 1.37 6.23.12.06-1.37-6.24z" fill="#00dfb4"/><path d="m44.91 52.13 1.37 6.22.27.13-1.37-6.22z" fill="#00dfb4"/><path d="m45.18 52.26 1.37 6.22.16.07-1.37-6.22z" fill="#00dfb4"/><path d="m44.86 52.11 1.37 6.22.05.02-1.37-6.22z" fill="#00dfb4"/><path d="m44.2 51.81 1.37 6.21.48.23-1.36-6.22z" fill="#00dfb4"/><path d="m26.33 61.25 1.07-5.7a3 3 0 0 1 1.6-1.84l-1.38 6.29.13-.06 1.38-6.25.31-.14-1.37 6.24.58-.26.12-.06.12-.06 1.37-6.23.13-.06-1.39 6.2.21-.1.38-.18 1.41-6.24.42-.19-1.37 6.23.54-.25.17-.08.26-.12h.06l.17-.07.49-.23.7-.32 1.33-6.05c.39 0 .61.27.53.74l-1.07 5.7a3 3 0 0 1 -1.61 1.84l-4.14 1.88c-.76.32-1.28.05-1.15-.63z" fill="#ffb89a" transform="translate(8.81)"/><path d="m37.46 59.49-.58.26 1.37-6.24.58-.26z" fill="#fff"/><path d="m39.41 58.59-.54.25 1.37-6.23.54-.24z" fill="#fff"/><path d="m31.75 58.06 1.36-6.21a1.34 1.34 0 0 1 .63-.14l-1.33 6.05z" fill="#fff" transform="translate(8.81)"/><path d="m27.62 60 1.38-6.29.12-.06-1.37 6.25z" fill="#fff" transform="translate(8.81)"/><path d="m38.07 59.21 1.37-6.24.38-.17-1.37 6.23z" fill="#fff"/><path d="m41.44 52.07-1.37 6.21-.17.08 1.36-6.21z" fill="#fff"/><path d="m38.03 59.22-.21.1 1.37-6.23.21-.1z" fill="#00dfb4"/><path d="m39.44 52.97-1.37 6.24-.04.01 1.37-6.23z" fill="#00dfb4"/><path d="m37.58 59.43 1.37-6.24.12-.05-1.37 6.23z" fill="#00dfb4"/><path d="m38.95 53.19-1.37 6.24-.12.06 1.37-6.24z" fill="#00dfb4"/><path d="m41.21 52.17-1.37 6.22-.27.12 1.37-6.22z" fill="#00dfb4"/><path d="m40.94 52.29-1.37 6.22-.16.08 1.37-6.22z" fill="#00dfb4"/><path d="m41.26 52.15-1.36 6.21-.06.03 1.37-6.22z" fill="#00dfb4"/><path d="m41.92 51.85-1.37 6.21-.48.22 1.37-6.21z" fill="#00dfb4"/><path d="m26.87 62.53a1.11 1.11 0 0 1 -.85-.37 1.17 1.17 0 0 1 -.21-1l1.07-5.7a3.47 3.47 0 0 1 1.9-2.22l4.12-1.87a2.11 2.11 0 0 1 .85-.21 1.34 1.34 0 0 1 .46.09 1.12 1.12 0 0 1 .5-.13 2.11 2.11 0 0 1 .86.19l4.14 1.88a3.49 3.49 0 0 1 1.91 2.23l1.07 5.7a1.14 1.14 0 0 1 -.21 1 1.06 1.06 0 0 1 -.85.37 2 2 0 0 1 -.82-.2l-4.15-1.88a3.49 3.49 0 0 1 -1.91-2.22l-.49-2.65-.51 2.68a3.48 3.48 0 0 1 -1.91 2.23l-4.15 1.88a2 2 0 0 1 -.82.2zm6.92-10.33a1.19 1.19 0 0 0 -.42.11l-4.14 1.87a2.59 2.59 0 0 0 -1.32 1.47l-1.07 5.7v.15a1 1 0 0 0 .39-.11l4.15-1.87a2.5 2.5 0 0 0 1.34-1.52l1-5.43a.55.55 0 0 1 .15-.28.4.4 0 0 1 -.08-.09zm.84.13a.54.54 0 0 1 .14.27l1 5.39a2.52 2.52 0 0 0 1.32 1.47l4.14 1.87a1.09 1.09 0 0 0 .39.11s0 0 0-.13l-1.07-5.7a2.46 2.46 0 0 0 -1.29-1.45l-4.09-1.85a1.17 1.17 0 0 0 -.43-.12.38.38 0 0 1 -.11.14z" fill="#340910" transform="translate(8.81)"/><path d="m34 53.15a1.23 1.23 0 1 1 0-2.45h.59a1.23 1.23 0 1 1 0 2.45z" fill="#ffb89a" transform="translate(8.81)"/><path d="m34.55 51.23a.71.71 0 1 1 0 1.39h-.55a.71.71 0 1 1 0-1.39h.59m0-1h-.59a1.75 1.75 0 1 0 0 3.49h.59a1.75 1.75 0 1 0 0-3.49z" fill="#340910" transform="translate(8.81)"/></g></svg>