<svg viewBox="0 0 103.72 103.72" xmlns="http://www.w3.org/2000/svg"><rect fill="#6aa29f" height="103.72" rx="15.74" width="103.72"/><path d="m88 103.72h-72.26a15.74 15.74 0 0 1 -15.74-15.72v-10.59h103.72v10.59a15.73 15.73 0 0 1 -15.72 15.72z" fill="#fff"/><rect fill="#2397d5" height="2.16" rx=".43" width="4.74" x="42.18" y="86.16"/><path d="m60 89.18a3.79 3.79 0 0 0 -3.78-3.76 3.67 3.67 0 0 0 -1.62.37.43.43 0 0 0 -.42-.37h-1.3a.43.43 0 0 0 -.43.43v7.22a.43.43 0 0 0 .43.43h1.3a.43.43 0 0 0 .43-.43v-3.89a1.62 1.62 0 0 1 3.23 0v3.89a.43.43 0 0 0 .43.43h1.3a.43.43 0 0 0 .43-.43z" fill="#f5bc26"/><path d="m74.77 85.41a4 4 0 1 0 4 4 4 4 0 0 0 -4-4zm0 5.93a1.89 1.89 0 1 1 1.89-1.89 1.89 1.89 0 0 1 -1.89 1.89z" fill="#dd4847"/><rect fill="#00c08b" height="8.08" rx=".43" width="2.16" x="48.64" y="85.41"/><path d="m69.22 85.41h-1.29a.43.43 0 0 0 -.43.43v.38a4 4 0 1 0 0 6.46v1.89a2 2 0 0 1 -3.89.35.44.44 0 0 0 -.43-.35h-1.3a.43.43 0 0 0 -.43.48 4.11 4.11 0 0 0 8.2-.48v-8.73a.43.43 0 0 0 -.43-.43zm-4.15 5.93a1.89 1.89 0 1 1 1.93-1.89 1.89 1.89 0 0 1 -1.93 1.89z" fill="#f2921b"/><path d="m45.41 81.64h-6a.43.43 0 0 0 -.43.43v11a.43.43 0 0 0 .43.43h1.3a.43.43 0 0 0 .43-.43v-9.28h6.46a2.15 2.15 0 0 0 -2.19-2.15z" fill="#2397d5"/><circle cx="36.78" cy="92.37" fill="#00c08b" r="1.08"/><path d="m50.1 81.9a.44.44 0 0 0 -.75 0l-.68 1.2a.43.43 0 0 0 .37.64h1.38a.43.43 0 0 0 .37-.64z" fill="#00c08b"/><path d="m29.8 83.78a4.86 4.86 0 1 0 4.06 7.46.43.43 0 0 0 -.36-.66h-1.7a.48.48 0 0 0 -.28.1 2.68 2.68 0 0 1 -4.31-1.18h6.95a.43.43 0 0 0 .43-.39 3.33 3.33 0 0 0 0-.55 4.86 4.86 0 0 0 -4.79-4.78zm-2.59 4a2.7 2.7 0 0 1 5.11 0z" fill="#00c08b"/><path d="m79.56 28.68a29.45 29.45 0 0 1 -7.68 32.46 30.19 30.19 0 0 1 -29.51 6.14 29.31 29.31 0 0 1 -4.67-53.71c9.22-5.29 23-4.43 31.47 2a30 30 0 0 1 10.39 13.11" fill="#fff"/><path d="m50.43 23.77c1-.31 2.39-1.11 3.44-.31.74 1.11 2.77 1.48 2.21 3a20.81 20.81 0 0 0 3.57 3.75c.31.06.43-.12.55-.31l-.37-.18c.43-.37 1.48.25 2.15-.12a1.7 1.7 0 0 1 1.36.55 9.88 9.88 0 0 0 .79 1.6l.25-.13a11.75 11.75 0 0 0 .8 1.54c2.21.74 3.26 3.38 5.22 4.49a32.28 32.28 0 0 0 7.74 4.61c-.12.37.31.37.5.49v.06a1.84 1.84 0 0 0 -1.23-.25c.37.56 1.29.31 1.48.93h-1c0 .18.24.18.37.24-.49-.18-1 .19-1.29-.43a42.34 42.34 0 0 1 -5.65-3.19l-.06.06a25.42 25.42 0 0 0 5 3.25c.56.31 1.35.5 1.66 1-.18.06-.49.06-.55.31l-.43-.25c-.12.06 0 .19-.07.25l.31.24a26.8 26.8 0 0 1 -6.33-3.68c-.92-.62-1.84-1.11-2.76-1.79-.12 0-.31-.06-.37.13 1 .79 2.15 1.29 3.19 2a17.31 17.31 0 0 1 -5.71-4.11c-.68-.68-1.66-2.09-2.83-1.85-.43.25-1.1.19-1.6.43-.36 0-.67-.43-1-.12-.31.68-1.29.12-1.48.86-.61.25-1.72.06-1.9.8l.06.31c-1.23.55-2.89.37-3.75 1.53-.25.25-.74-.06-1 .25.06-.12-.06-.25-.19-.25-.31-.12-.49.19-.74.25-.18-.31.25-.37.19-.56-.55-.24-.8.5-1.23.74.06-.49.62-.55.8-1-.31-.18-.55.12-.8.18.12-.06.37-.49 0-.49.31-.49 1-.3 1.17-.86h-.49c.49-.37 1-.8 1.47-1.17-.18 0-.55-.49-.86-.06 0-.06.12-.12.06-.18-.24-.25-.55.18-.86.18 0 .06.06-.18-.12-.24h-.19c.19-.12.44-.43.68-.62l-.12-.12a29 29 0 0 1 2.73-1.53l.18-.18a.64.64 0 0 0 -1 0c.81-.06.06-.93.86-1.05a2.48 2.48 0 0 1 1.23-1.47c-.8-.74-1.1-2.09-2-2.52-.06-.55-.61 0-.67-.55-1.11-.07-2.4.49-3.14-.5a4.75 4.75 0 0 0 -1.84-.06 5.8 5.8 0 0 0 -1 1.54 5.9 5.9 0 0 0 -1.11 1.53 4.93 4.93 0 0 1 -2.21 2v-.12c-.68.92-2.15.55-3 1.53l-.06-.24a.51.51 0 0 0 -.62.37v.12c-.43-.12-.74.37-.92.61-1 1.11-2.77 1.11-3.87 2-.13.06.06 0 0-.06-2 .43-3 2-4.37 3.44a7.92 7.92 0 0 1 -1.47 1.48c.12.49-.62.67-.86.92.24-.43.8-.8.86-1.29-.49.25-.62.8-1.17 1-.31-.24.31-.43.12-.67l-.74.55.68-.92c-.37.06-.74.68-1.17.74-.12.18-.3.18-.55.18v-.06a10.71 10.71 0 0 0 1-1c-.42-.25-.92.3-1.23.24-.12-.06-.05-.36-.36-.24.31-.25.61-.43.74-.8a1.41 1.41 0 0 0 -.81.24c.07-.3.68-.49.5-1-.8-.12-.68.68-1.35.86.67-.92 1.66-1.48 2.33-2.46l-.06-.06a17.86 17.86 0 0 1 4.52-3.1c1.29-.73 3-1.1 3.93-2.33a9.22 9.22 0 0 0 1-1.41c.19.06.25-.13.31-.25a5.82 5.82 0 0 1 3-.92c.5-.49 1.42-.19 1.78-.86 1.29-1.54 1.78-3.44 2.89-5 .37-.49.8-1.29 1.54-1.48a30.1 30.1 0 0 1 5.35 1" fill="#0f938c"/><path d="m50.43 23.77c1-.31 2.39-1.11 3.44-.31.74 1.11 2.77 1.48 2.21 3a20.81 20.81 0 0 0 3.57 3.75c.31.06.43-.12.55-.31l-.37-.18c.43-.37 1.48.25 2.15-.12a1.7 1.7 0 0 1 1.36.55 9.88 9.88 0 0 0 .79 1.6l.25-.13a11.75 11.75 0 0 0 .8 1.54c2.21.74 3.26 3.38 5.22 4.49a32.28 32.28 0 0 0 7.74 4.61c-.12.37.31.37.5.49v.06a1.84 1.84 0 0 0 -1.23-.25c.37.56 1.29.31 1.48.93h-1c0 .18.24.18.37.24-.49-.18-1 .19-1.29-.43a42.34 42.34 0 0 1 -5.65-3.19l-.06.06a25.42 25.42 0 0 0 5 3.25c.56.31 1.35.5 1.66 1-.18.06-.49.06-.55.31l-.43-.25c-.12.06 0 .19-.07.25l.31.24a26.8 26.8 0 0 1 -6.33-3.68c-.92-.62-1.84-1.11-2.76-1.79-.12 0-.31-.06-.37.13 1 .79 2.15 1.29 3.19 2a17.31 17.31 0 0 1 -5.71-4.11c-.68-.68-1.66-2.09-2.83-1.85-.43.25-1.1.19-1.6.43-.36 0-.67-.43-1-.12-.31.68-1.29.12-1.48.86-.61.25-1.72.06-1.9.8l.06.31c-1.23.55-2.89.37-3.75 1.53-.25.25-.74-.06-1 .25.06-.12-.06-.25-.19-.25-.31-.12-.49.19-.74.25-.18-.31.25-.37.19-.56-.55-.24-.8.5-1.23.74.06-.49.62-.55.8-1-.31-.18-.55.12-.8.18.12-.06.37-.49 0-.49.31-.49 1-.3 1.17-.86h-.49c.49-.37 1-.8 1.47-1.17-.18 0-.55-.49-.86-.06 0-.06.12-.12.06-.18-.24-.25-.55.18-.86.18 0 .06.06-.18-.12-.24h-.19c.19-.12.44-.43.68-.62l-.12-.12a29 29 0 0 1 2.73-1.53l.18-.18a.64.64 0 0 0 -1 0c.81-.06.06-.93.86-1.05a2.48 2.48 0 0 1 1.23-1.47c-.8-.74-1.1-2.09-2-2.52-.06-.55-.61 0-.67-.55-1.11-.07-2.4.49-3.14-.5a4.75 4.75 0 0 0 -1.84-.06 5.8 5.8 0 0 0 -1 1.54 5.9 5.9 0 0 0 -1.11 1.53 4.93 4.93 0 0 1 -2.21 2v-.12c-.68.92-2.15.55-3 1.53l-.06-.24a.51.51 0 0 0 -.62.37v.12c-.43-.12-.74.37-.92.61-1 1.11-2.77 1.11-3.87 2-.13.06.06 0 0-.06-2 .43-3 2-4.37 3.44a7.92 7.92 0 0 1 -1.47 1.48c.12.49-.62.67-.86.92.24-.43.8-.8.86-1.29-.49.25-.62.8-1.17 1-.31-.24.31-.43.12-.67l-.74.55.68-.92c-.37.06-.74.68-1.17.74-.12.18-.3.18-.55.18v-.06a10.71 10.71 0 0 0 1-1c-.42-.25-.92.3-1.23.24-.12-.06-.05-.36-.36-.24.31-.25.61-.43.74-.8a1.41 1.41 0 0 0 -.81.24c.07-.3.68-.49.5-1-.8-.12-.68.68-1.35.86.67-.92 1.66-1.48 2.33-2.46l-.06-.06a17.86 17.86 0 0 1 4.52-3.1c1.29-.73 3-1.1 3.93-2.33a9.22 9.22 0 0 0 1-1.41c.19.06.25-.13.31-.25a5.82 5.82 0 0 1 3-.92c.5-.49 1.42-.19 1.78-.86 1.29-1.54 1.78-3.44 2.89-5 .37-.49.8-1.29 1.54-1.48a30.1 30.1 0 0 1 5.34 1.02z" fill="none" stroke="#0f938c" stroke-width=".488"/><path d="m64.14 31.08-.25-.8.25.68z" fill="#fff"/><path d="m64.56 32.31c-.24-.06-.18-.24-.3-.43a.79.79 0 0 1 .3.43" fill="#fff"/><path d="m35.25 32.74c-.19-.37.3-.49.49-.8a1.37 1.37 0 0 1 -.49.8" fill="#119884"/><path d="m41.15 32.86v-.06h.18z" fill="#119884"/><path d="m39.86 33.23c-.13.13-.19.31-.37.25 0-.19.24-.37.37-.25" fill="#119884"/><path d="m51.66 34.28c-.31.24-.93.43-1 .79-.55-.06-.92.5-1.35.5.06-.5.8-.19.86-.68l.49-.37.06.19c.19-.19.8-.06.62-.56z" fill="#fff"/><path d="m49.69 34.65a1 1 0 0 1 -.68.49c.13-.31.37-.31.68-.49" fill="#fff"/><path d="m37 35.38c.12.19-.12 0-.19.13.07-.06.13-.13.19-.13" fill="#119884"/><path d="m50.86 35.69h.19v.18h-.19z" fill="#fff"/><path d="m50.61 36.12c0 .12-.12.12-.18.25h-.19c-.06-.19.13-.25.25-.31s.06.06.12.06" fill="#fff"/><path d="m51.78 37.29c-.06.24-.37.24-.49.31s.06-.13.06-.25c.19.06.25-.12.43-.06" fill="#fff"/><path d="m51.9 37.66c-.06.24-.49.24-.74.43-.06-.25.31-.37.5-.49.06.06.24 0 .24.06" fill="#119884"/><path d="m66.65 38.27c.25.13.37.43.56.61l-.19.19a4.41 4.41 0 0 1 -.92-1.41c.18.18.31.49.55.61" fill="#119884"/><g fill="#fff"><path d="m75.51 41.53c-.19.12-.44-.12-.62-.18z"/><path d="m77.23 42.45c-.5-.31-1.17-.31-1.54-.68a3.57 3.57 0 0 1 1.54.68"/><path d="m71.82 42.39-.74-.55.49.24z"/><path d="m77.04 44.24.06-.13.18.13z"/><path d="m76.8 44.54h-.25v-.12c.06.06.18.06.25.12"/></g></svg>